<?xml version="1.0" standalone="no"?>
<!DOCTYPE svg PUBLIC "-//W3C//DTD SVG 20010904//EN"
 "http://www.w3.org/TR/2001/REC-SVG-20010904/DTD/svg10.dtd">
<svg version="1.0" xmlns="http://www.w3.org/2000/svg"
 width="700.000000pt" height="700.000000pt" viewBox="0 0 700.000000 700.000000"
 preserveAspectRatio="xMidYMid meet">
<metadata>
Created by potrace 1.11, written by Peter Selinger 2001-2013
</metadata>
<g transform="translate(0.000000,700.000000) scale(0.100000,-0.100000)"
fill="#000000" stroke="none">
<path d="M4563 6559 c-76 -14 -129 -52 -164 -120 -22 -43 -23 -52 -23 -319 l0
-275 29 -45 c33 -53 46 -64 100 -90 108 -52 243 1 291 115 24 58 24 543 -1
601 -39 93 -137 150 -232 133z"/>
<path d="M2954 5898 c-22 -13 -47 -27 -56 -33 -9 -5 -28 -33 -42 -61 -31 -63
-34 -131 -7 -190 23 -52 356 -386 413 -415 105 -54 238 -8 289 99 26 56 28
131 5 184 -22 52 -366 394 -420 419 -57 26 -131 25 -182 -3z"/>
<path d="M6051 5900 c-51 -24 -388 -354 -416 -409 -21 -42 -26 -117 -11 -167
15 -50 83 -118 137 -136 55 -18 118 -14 167 11 50 26 382 360 408 411 42 82
25 178 -43 245 -67 67 -156 83 -242 45z"/>
<path d="M4489 5466 c-2 -2 -29 -6 -59 -9 -284 -30 -587 -183 -793 -402 -30
-31 -151 -191 -179 -236 -15 -24 -19 -25 -70 -18 -59 9 -435 5 -483 -5 -16 -3
-46 -9 -65 -12 -19 -3 -46 -8 -60 -10 -14 -3 -67 -16 -118 -30 -379 -102 -695
-304 -960 -613 -124 -144 -256 -359 -333 -542 -70 -168 -154 -458 -158 -551
-1 -11 -14 -18 -43 -23 -57 -9 -245 -60 -300 -81 -121 -47 -323 -156 -385
-209 -155 -132 -220 -203 -295 -320 -90 -140 -151 -307 -175 -476 -10 -69 -10
-304 0 -389 46 -409 288 -752 658 -933 206 -101 363 -142 624 -163 106 -9
3405 -9 3515 0 47 4 92 9 100 11 8 2 33 6 55 10 142 20 359 91 509 166 72 37
243 142 256 158 3 3 28 24 55 45 78 62 200 193 268 288 159 225 249 459 282
738 12 106 6 363 -11 444 -3 12 -9 44 -15 71 -23 121 -60 229 -122 365 -47
102 -171 274 -271 375 -86 88 -244 216 -279 228 -6 2 10 32 35 68 39 54 138
236 138 253 0 2 5 17 12 33 6 15 12 33 13 38 2 6 10 31 18 57 18 51 20 62 37
170 61 405 -73 816 -360 1109 -247 251 -556 385 -911 394 -70 2 -129 2 -130 1z
m261 -451 c329 -65 587 -296 678 -605 32 -110 33 -115 36 -235 6 -221 -71
-432 -216 -598 l-33 -38 -85 24 c-47 14 -99 27 -115 30 -104 17 -105 18 -122
61 -53 133 -209 390 -304 501 -72 83 -215 221 -276 267 -32 24 -60 45 -63 48
-22 22 -145 96 -242 145 -96 49 -115 62 -108 76 30 56 189 187 294 243 153 81
386 115 556 81z m-1415 -649 c397 -45 727 -237 969 -561 84 -113 143 -219 209
-377 35 -83 116 -165 209 -210 23 -12 95 -32 158 -45 650 -136 1020 -540 1023
-1118 1 -192 -15 -281 -76 -440 -81 -213 -256 -420 -454 -541 -103 -63 -302
-144 -389 -160 -16 -3 -49 -10 -73 -15 -25 -5 -79 -13 -120 -16 -42 -4 -839
-7 -1771 -7 -1833 0 -1796 -1 -1981 54 -151 45 -282 117 -375 208 -108 104
-188 261 -209 407 -4 22 -8 51 -11 65 -8 44 -5 223 5 275 32 176 96 299 218
419 135 134 320 225 563 276 133 28 217 68 284 135 68 69 103 143 132 282 91
439 273 776 549 1014 234 202 533 330 830 356 39 3 71 6 72 7 5 4 183 -2 238
-8z"/>
<path d="M6315 4372 c-113 -19 -189 -107 -187 -217 0 -90 47 -160 131 -198 40
-18 67 -19 307 -19 250 0 265 1 308 22 162 78 165 301 6 389 -43 24 -49 25
-294 26 -138 0 -260 -1 -271 -3z"/>
</g>
</svg>
